<svg xmlns="http://www.w3.org/2000/svg" viewBox="0 0 1003.44 1003.44"><defs><style>.cls-1{fill:#fff;}.cls-1,.cls-2{fill-rule:evenodd;}</style></defs><g id="Calque_2" data-name="Calque 2"><g id="Layer_1" data-name="Layer 1"><path class="cls-1" d="M501.72,0c277.09,0,501.72,224.63,501.72,501.72s-224.63,501.72-501.72,501.72S0,778.81,0,501.72,224.63,0,501.72,0"/><path class="cls-2" d="M390.76,959.7H612.67q16.22-3.91,32-8.92H358.81q15.75,5,31.95,8.92"/><path class="cls-2" d="M318.28,935.83H685.16q10-4.25,19.75-8.92H298.52q9.76,4.67,19.76,8.92"/><path class="cls-2" d="M269.89,912H733.55q7.62-4.32,15.08-8.91H254.81q7.45,4.59,15.08,8.91"/><path class="cls-2" d="M232.06,888.09H771.38c4.16-2.92,8.3-5.87,12.36-8.92h-564c4.06,3.05,8.19,6,12.36,8.92"/><path class="cls-2" d="M200.77,864.21H802.68c3.51-2.91,7-5.89,10.39-8.9H190.37c3.43,3,6.88,6,10.4,8.9"/><path class="cls-2" d="M174.17,840.35h655.1q4.53-4.4,9-8.92h-673c3,3,5.94,6,9,8.92"/><path class="cls-2" d="M151.16,816.48H852.27c2.65-2.94,5.24-5.91,7.82-8.91H143.35q3.85,4.5,7.81,8.91"/><path class="cls-2" d="M131.06,792.61H872.38q3.47-4.43,6.83-8.92h-755q3.38,4.5,6.83,8.92"/><path class="cls-2" d="M113.53,768.74H889.91q3-4.43,6-8.92H107.53q2.94,4.5,6,8.92"/><path class="cls-2" d="M98.09,744.87H905.35c1.78-3,3.54-5.92,5.25-8.91H92.83q2.58,4.49,5.26,8.91"/><path class="cls-2" d="M84.64,721H918.8q2.34-4.43,4.57-8.92H80.06q2.23,4.49,4.58,8.92"/><path class="cls-2" d="M72.89,697.13H930.54c1.35-3,2.66-5.93,4-8.91H69c1.29,3,2.59,6,3.94,8.91"/><path class="cls-2" d="M62.78,673.27H940.66c1.15-3,2.28-5.93,3.38-8.92H59.39c1.11,3,2.24,5.95,3.39,8.92"/><path class="cls-2" d="M54.2,649.39h895c1-2.95,1.94-5.93,2.86-8.91H51.35c.92,3,1.88,6,2.85,8.91"/><path class="cls-2" d="M47,625.53H956.4c.8-3,1.59-5.94,2.34-8.92H44.7q1.13,4.47,2.33,8.92"/><path class="cls-2" d="M41.22,601.65h921c.64-3,1.26-5.92,1.84-8.91H39.39c.58,3,1.2,6,1.83,8.91"/><path class="cls-2" d="M36.71,577.78h930c.49-2.95.94-5.93,1.37-8.91H35.35c.43,3,.88,6,1.36,8.91"/><path class="cls-2" d="M33.46,553.92H970c.33-3,.62-5.94.89-8.92H32.56c.28,3,.57,6,.9,8.92"/><path class="cls-2" d="M31.43,530H972q.25-4.44.44-8.91H31q.18,4.47.43,8.91"/><path class="cls-2" d="M30.62,506.18H972.81c0-1.49.06-3,.06-4.46s0-3-.06-4.46H30.62c0,1.49-.06,3-.06,4.46s.05,3,.06,4.46"/><path class="cls-2" d="M31,482.31H972.44q-.18-4.47-.44-8.91H31.43q-.25,4.44-.43,8.91"/><path class="cls-2" d="M32.56,458.44H970.87c-.27-3-.56-5.95-.89-8.92H33.46c-.33,3-.62,5.94-.9,8.92"/><path class="cls-2" d="M35.35,434.57H968.09q-.65-4.47-1.36-8.92h-930c-.48,3-.94,5.94-1.36,8.92"/><path class="cls-2" d="M39.39,410.7H964.05c-.58-3-1.2-5.95-1.84-8.91h-921c-.63,3-1.25,5.93-1.83,8.91"/><path class="cls-2" d="M44.7,386.83h914c-.75-3-1.54-5.95-2.34-8.92H47c-.8,3-1.58,5.93-2.33,8.92"/><path class="cls-2" d="M51.35,363H952.1q-1.4-4.48-2.87-8.91H54.2c-1,2.95-1.93,5.92-2.85,8.91"/><path class="cls-2" d="M59.39,339.09H944c-1.1-3-2.23-6-3.38-8.91H62.78c-1.15,2.95-2.29,5.93-3.39,8.91"/><path class="cls-2" d="M69,315.22H934.49c-1.29-3-2.6-6-4-8.91H72.89c-1.35,2.95-2.65,5.93-3.94,8.91"/><path class="cls-2" d="M80.06,291.36H923.37q-2.24-4.49-4.57-8.92H84.64q-2.34,4.43-4.58,8.92"/><path class="cls-2" d="M92.83,267.48H910.6c-1.71-3-3.47-6-5.25-8.91H98.09q-2.69,4.43-5.26,8.91"/><path class="cls-2" d="M107.53,243.61H895.91c-2-3-4-6-6-8.91H113.52q-3,4.43-6,8.91"/><path class="cls-2" d="M124.23,219.75h755q-3.36-4.5-6.83-8.92H131.06q-3.47,4.42-6.83,8.92"/><path class="cls-2" d="M143.35,195.87H860.09c-2.57-3-5.17-6-7.81-8.91H151.16c-2.65,2.94-5.24,5.92-7.81,8.91"/><path class="cls-2" d="M165.2,172h673q-4.44-4.51-9-8.92H174.17q-4.54,4.4-9,8.92"/><path class="cls-2" d="M190.36,148.14H813.07c-3.42-3-6.87-6-10.39-8.91H200.76q-5.26,4.36-10.4,8.91"/><path class="cls-2" d="M219.7,124.27h564c-4.06-3-8.19-6-12.36-8.92H232.06c-4.17,2.92-8.3,5.87-12.36,8.92"/><path class="cls-2" d="M254.81,100.4H748.63q-7.46-4.61-15.08-8.92H269.89q-7.63,4.33-15.08,8.92"/><path class="cls-2" d="M298.52,76.53h406.4q-9.76-4.68-19.76-8.91H318.27q-10,4.22-19.75,8.91"/><path class="cls-2" d="M358.81,52.66H644.64q-15.75-5-32-8.92H390.75q-16.2,3.93-31.94,8.92"/><path class="cls-1" d="M658.54,270.93s29.31-33.67,29-65.13-9.2-80.47-9.2-80.47l-27.74,13.36s-62.4,99-90.13,108.94-44.56,7.92-44.56,7.92l6.43-28.72L512,212.23s-21.55-62.9-25-72.31-14.36-30.7-26.74-26.73-40.6,46.54-40.6,46.54-42.6,105-41.12,144.09-31.2-9.9-67.84,58.44-44.59,97-57,108.93-44.07,45.55-59.92,81.7-110.43,92.6-110.43,92.6S189.78,874.27,229.89,895.06s222.82,99,273.83,62.9,42.09-63.88,42.09-63.88S584.92,772.75,591.36,751s29.21-119.34,29.21-119.34,23.77-75.76,27.73-78.23,30.89-3.08,39.58-5,11.09-6.42,15-10.24l-4.05-14.47,9.9-48.29,26.49-9.9s15.35-2.36,16.22-8.18.61-12.51-2.23-15.49-10.77-12.13-10.77-12.13-21.67-14.5-24.64-16.6-35-18.81-40.73-34.92-.37-19.55-.37-19.55,5.38-10.43,14.75-.52c0,0,8.65-4.94,7.76-15S686,315.14,682.32,309,637,273,637,273Z"/><path class="cls-2" d="M566.28,346.21c2,.72,5.69,2.9,9.26,9.34,5.18,9.37-8.54,11-16.07,9.7s-13.73-5.36-15.06-10.71c-1-4,3.45-7.4,11.22-8.49a6.69,6.69,0,1,0,10.65.16m-92.55-91.29c-24.43-14.39-18.58-40.16-18.58-40.16a22.5,22.5,0,0,0,11.38,8.86c-21.76-21.42-3.35-62.25-16.07-50.86s-19.08,34.8-19.08,34.8c-2.34-6-1.67-17.41-1.67-17.41-12.39,33.15,3.68,66.46,3.68,66.46-8.37,4.34-15.73,16.06-15.73,16.06s15.06-10,24.1-10.38,11.71,19.09,11.71,19.09c-21.42,8-64.26,45.18-64.26,45.18,3.34-12.72,13.05-25.44,13.05-25.44-21.42-21.75-4.68-66.27-4.68-66.27C403.27,250.24,419,261,419,261,384.18,203.39,450.13,119,455.48,125.73s7.7,22.77,7.7,22.77l2.34-27.12c17.41,7,22.76,50.88,31.47,71s16.39,27.77,16.39,27.77S485.78,230.15,473.73,254.92Zm273,204.63c-12.94-16.3-39.05-6.93-39.05-6.93S736.43,430.76,746.69,459.55ZM675.79,450c1.35,12.38,5.19,28.7,2.51,37.06a15,15,0,0,1,9.28-3.59c6-.33,14.06,12.77,5.36,20.13s-65.76,41.79-110.61,1.62-57.91-37.49-60.58-28.78,5.35,6.35,13.54,9,22.53,6.27,43.28,21c48,34.08,81.94,20.91,113.8,33,12.39,4.68,13.39-7.7,15.74-13.72s9.37,3.35,12.38-10.39,8-21.08,16.4-25.76-.21-10.51-2.72-11.68,12.58,2.86,17.8-8.58c19-41.66-55.64-65.18-72.38-82.8-4-4.2,3.46-11.83,1-21.53a58,58,0,0,0-2.64-8c2.25-4.31,9.48,1.08,9.48,1.08-6.7-10.37-13.31-8.57-13.31-8.57.55-3,3.67-8.71,3.67-8.71-15.32,5.33-15.17,23.44-15.17,23.44-8.92-5.36-15.17-15.63-15.17-15.63,14.21,48.8,92.94,78.42,99.86,95.16v0C727,425.25,672.87,423.31,675.79,450ZM341.06,929.83c6.4-13.12,19.31-43.82,14.72-69.84,0,0-12.72,32.8-52.88,44.84A69.6,69.6,0,0,0,326,880.74a112.09,112.09,0,0,1-43.18,19.74s17.74-9.7,28.45-27.78c0,0-11.38,9.87-38.49,15.23,0,0,18.08-11.39,27.45-25.77,0,0-17.08,7.36-34.81,9.37,0,0,17.73-10,24.43-20.43,0,0-11,6-28.12,9,0,0,9.71-5.36,14.4-13.06,0,0-14.4,8.7-23.77,12.39-3.5,1.37-8.16,7.82-12.21,17.19A456.58,456.58,0,0,0,341.06,929.83Zm97.86,24.77a455.21,455.21,0,0,1-95.72-24c25.63-29.09,28-72,28-72,6,16.39,1.34,34.47,1.34,34.47,20.08-8.71,22.09-17.74,22.09-17.74,5.35,9.7,7.36,26.78,7.36,26.78,10.72-13.39,11-25.11,11-25.11,10.71,13.39,15.06,31.81,15.06,31.81,8.71-18.08,6-34.15,6-34.15,8,5.69,31.46,12,31.46,12C419.38,860,405.65,831,405.65,831c6.37,18.41,19.76,31.8,19.76,31.8-56.24-43.51-65.27-100.42-65.27-100.42-2.68,21.76,3.34,37.5,3.34,37.5-23.1-24.11-20.08-59.26-20.08-59.26a43.12,43.12,0,0,0-2.35,30.13c-30.79-39.5-9-80.33-9-80.33-8.37,1.67-13.06,9.37-13.06,9.37,21.76-45.86,51.22-15.39,54.23,7.37s-4.69,35.47-4.69,35.47a57.06,57.06,0,0,0,23.77-19.07c10,44.85,47.52,55.57,47.52,55.57-20.75-16.41-21.42-34.31-21.42-34.31,7.21,11.55,22.6,15.89,22.6,15.89-12.88-7.52-14.72-22.92-14.72-22.92,5.51,9.53,21.25,16.07,21.25,16.07-6.87-6.36-7.87-17.91-7.87-17.91,7,9.37,20.09,10.38,20.09,10.38-8.7-6-11.38-18.42-11.38-18.42,7.35,8.7,20.41,11.72,20.41,11.72-14.73-12.72-11-31.46-11-31.46,5.36,10.71,17.73,14.39,17.73,14.39-10.71-11.05-9-28.11-9-28.11,7.35,8,15.06,9.7,15.06,9.7-18.41-18.74-10.71-50.21-.34-46.86s24.61,3.35,24.61,3.35c-23.43-14.73-24.61-45.19-24.61-45.19,7.37,6,22.77,12,22.77,12-13.06-9.71-23.1-34.47-23.1-34.47,11,6.36,25.44,8.36,25.44,8.36-54.9-34.14-80.33-96.4-80.33-96.4a46.83,46.83,0,0,0,3,14.73c-18.74-20.08-10.71-57.57-10.71-57.57-6.69,3-10.71,10.38-10.71,10.38C408.17,446.45,418,424,418,424a76.89,76.89,0,0,0-11.88,8.36,78.72,78.72,0,0,1,14.06-29.12,59.82,59.82,0,0,0-15.57,6.36c24.1-34.64,57.9-46.52,57.9-46.52-2.34,7-4.34,21.75-4.34,21.75,9-21.08,18.74-27.44,27.61-28.62s15.9,7,15.9,7c7-25.78,23.93-26.44,23.93-26.44a13.7,13.7,0,0,0,.17,7.36c18.41-20.08,45.19-7.36,24.43-3.68s-32.47,19.24-32.47,19.24c19.08-3,25.78,5.69,34.48,14.73s24.77,9,24.77,9c-7,6-20.08,9.37-20.08,9.37,29.12,7,42.17-5.35,42.17-5.35a51,51,0,0,1-2.84,10.38c23.76-14.4,22.09-50.55,22.09-50.55A40.57,40.57,0,0,1,605,366.46c1.17-5.35-1-11.71-1-11.71a24.28,24.28,0,0,1-4.35,9.37c-4.85-18.91-18.24-32-18.24-32a79.81,79.81,0,0,1,2,8.21c-12-10.22-17.73-20.09-17.73-20.09a23,23,0,0,0,8-.49c-5.19-1.84-10-8-10-8,8,3.68,20.08,2,20.08,2-9-5.69-12.05-24.77-12.05-24.77,11.72,8.71,31.8,11.71,31.8,11.71-17.41-22.09-20.09-51.54-20.09-51.54,33.48,17.74,52.89,51.54,52.89,51.54,26.11-3.34,33.81,13.73,33.81,13.73a39.85,39.85,0,0,0-6.36-15.9C690.83,315.59,695.19,343,695.19,343c-2-55.57-47.88-66.61-39.17-87s9-46.35,9-46.35c2.85,4.17,3.51,14.39,3.51,14.39,5-23.77.34-54.22-8.37-46.2s-25.76,32.47-25.76,32.47c6.69-2.51,13.22.67,13.22.67-8.37,3-10.72,7.28-10.72,7.28,6.27-1.5,14-.42,11.3,8.28a28.8,28.8,0,0,1-8.37,13.23C625.14,237.11,624,219.2,624,219.2c-20.42,4-13.73-9.88-4.69-22.26s49.54-83.18,57.23-64.44,11,73.3,11,73.3c11-117.18-15.8-99.11-32.53-84.38s-39.33,58.58-52.72,70S587.08,217,565.49,216s-33.14.18-33.14.18c-8-9.71-13.73-10.22-13.73-10.22,2.85,4.52,3.52,12.23,3.52,12.23-19.41-16.41-22.09-86.37-46.86-107.12s-40.84,8.7-61.58,44.86-49.55,141.24-49.55,141.24c-68.28,42.18-111.8,156.66-111.8,156.66-32.13,18.07-39.49,45.51-39.49,45.51-56.23,20.09-66.27,89-66.27,89s-32.22,23.79-83.43,42.79A457.32,457.32,0,0,1,44.55,501.72c0-252.49,204.68-457.17,457.17-457.17S958.89,249.23,958.89,501.72c0,238.75-183,434.71-416.41,455.34,2.76-8.09,5.61-1.31,3.51-21.23s15.82-41.32,31.88-82.37c27-69.09,41.4-165.81,60.42-239.93,4.32-16.82,1.73-56.06,23.83-58.9,12.17-1.56,25.76-6.25,25.76-6.25-62,.45-108.44-19.19-108.44-19.19s34.29,24.43,62.85,26.88c-11.82,7.37-14.95,43.07-31,53.78s-11.61,38.38-17.85,45.08c-33.37,35.73-2.4-.4-6.25,49.76-.67,8.7-10,27.22-32.59,25.21s-33,14.29-33,14.29c11.38-5.13,25.66-1.57,25.66-1.57-41.05,10.72-27,50.66-27,50.66-9.58-4-9.14-15.4-9.14-15.4-4.46,15.18.44,25.89,18.74,23.21s21.42-17.86,21.42-17.86c4.25,6,4,14.06,4,14.06,6.67-8.09,13.81-19.93,21-33.92C564.88,843.13,534.52,953.26,438.92,954.6ZM265.52,477.19c-95.39,53.66,77.3,106.36,34.35,61.34C267.46,504.54,277.3,472.8,265.52,477.19Zm28.3-50.58c-2.49,34,33.28,75.32,28.81,17.75C319.38,402.45,395.36,225.84,293.82,426.61ZM501.72,17.48C769.16,17.48,986,234.28,986,501.72S769.16,986,501.72,986,17.48,769.16,17.48,501.72,234.28,17.48,501.72,17.48Z"/></g></g></svg>